<mxfile host="app.diagrams.net" modified="2024-04-12T08:00:23.201Z" agent="Mozilla/5.0 (Windows NT 10.0; Win64; x64) AppleWebKit/537.36 (KHTML, like Gecko) Chrome/123.0.0.0 Safari/537.36" etag="c22-kmyFx00tmtG6Nwgr" version="24.2.3" type="device">
  <diagram id="C5RBs43oDa-KdzZeNtuy" name="Page-1">
    <mxGraphModel dx="3698" dy="2313" grid="1" gridSize="10" guides="1" tooltips="1" connect="1" arrows="1" fold="1" page="1" pageScale="1" pageWidth="827" pageHeight="1169" math="0" shadow="0">
      <root>
        <mxCell id="WIyWlLk6GJQsqaUBKTNV-0" />
        <mxCell id="WIyWlLk6GJQsqaUBKTNV-1" parent="WIyWlLk6GJQsqaUBKTNV-0" />
        <mxCell id="fSA8bUPARVTCxsjljpVI-46" value="LightOnCommand" style="swimlane;fontStyle=1;align=center;verticalAlign=top;childLayout=stackLayout;horizontal=1;startSize=26;horizontalStack=0;resizeParent=1;resizeParentMax=0;resizeLast=0;collapsible=1;marginBottom=0;whiteSpace=wrap;html=1;" vertex="1" parent="WIyWlLk6GJQsqaUBKTNV-1">
          <mxGeometry x="-690" y="-62" width="160" height="86" as="geometry" />
        </mxCell>
        <mxCell id="fSA8bUPARVTCxsjljpVI-47" value="- Light: light" style="text;strokeColor=none;fillColor=none;align=left;verticalAlign=top;spacingLeft=4;spacingRight=4;overflow=hidden;rotatable=0;points=[[0,0.5],[1,0.5]];portConstraint=eastwest;whiteSpace=wrap;html=1;" vertex="1" parent="fSA8bUPARVTCxsjljpVI-46">
          <mxGeometry y="26" width="160" height="26" as="geometry" />
        </mxCell>
        <mxCell id="fSA8bUPARVTCxsjljpVI-48" value="" style="line;strokeWidth=1;fillColor=none;align=left;verticalAlign=middle;spacingTop=-1;spacingLeft=3;spacingRight=3;rotatable=0;labelPosition=right;points=[];portConstraint=eastwest;strokeColor=inherit;" vertex="1" parent="fSA8bUPARVTCxsjljpVI-46">
          <mxGeometry y="52" width="160" height="8" as="geometry" />
        </mxCell>
        <mxCell id="fSA8bUPARVTCxsjljpVI-49" value="+ Execute(): void" style="text;strokeColor=none;fillColor=none;align=left;verticalAlign=top;spacingLeft=4;spacingRight=4;overflow=hidden;rotatable=0;points=[[0,0.5],[1,0.5]];portConstraint=eastwest;whiteSpace=wrap;html=1;" vertex="1" parent="fSA8bUPARVTCxsjljpVI-46">
          <mxGeometry y="60" width="160" height="26" as="geometry" />
        </mxCell>
        <mxCell id="fSA8bUPARVTCxsjljpVI-34" value="RemoteLoader" style="swimlane;fontStyle=0;childLayout=stackLayout;horizontal=1;startSize=26;fillColor=none;horizontalStack=0;resizeParent=1;resizeParentMax=0;resizeLast=0;collapsible=1;marginBottom=0;whiteSpace=wrap;html=1;" vertex="1" parent="WIyWlLk6GJQsqaUBKTNV-1">
          <mxGeometry x="-1390" y="-330" width="140" height="52" as="geometry" />
        </mxCell>
        <mxCell id="fSA8bUPARVTCxsjljpVI-38" value="RemoteControl" style="swimlane;fontStyle=1;align=center;verticalAlign=top;childLayout=stackLayout;horizontal=1;startSize=26;horizontalStack=0;resizeParent=1;resizeParentMax=0;resizeLast=0;collapsible=1;marginBottom=0;whiteSpace=wrap;html=1;" vertex="1" parent="WIyWlLk6GJQsqaUBKTNV-1">
          <mxGeometry x="-1137" y="-330" width="310" height="120" as="geometry" />
        </mxCell>
        <mxCell id="fSA8bUPARVTCxsjljpVI-39" value="- ICommand[]: onCommands&lt;div&gt;&lt;div&gt;- ICommand[]: offCommands&lt;/div&gt;&lt;/div&gt;" style="text;strokeColor=none;fillColor=none;align=left;verticalAlign=top;spacingLeft=4;spacingRight=4;overflow=hidden;rotatable=0;points=[[0,0.5],[1,0.5]];portConstraint=eastwest;whiteSpace=wrap;html=1;" vertex="1" parent="fSA8bUPARVTCxsjljpVI-38">
          <mxGeometry y="26" width="310" height="34" as="geometry" />
        </mxCell>
        <mxCell id="fSA8bUPARVTCxsjljpVI-40" value="" style="line;strokeWidth=1;fillColor=none;align=left;verticalAlign=middle;spacingTop=-1;spacingLeft=3;spacingRight=3;rotatable=0;labelPosition=right;points=[];portConstraint=eastwest;strokeColor=inherit;" vertex="1" parent="fSA8bUPARVTCxsjljpVI-38">
          <mxGeometry y="60" width="310" height="8" as="geometry" />
        </mxCell>
        <mxCell id="fSA8bUPARVTCxsjljpVI-41" value="+ SetCommand(slot, onCommand, offCommand): void&lt;div&gt;+ OnButtonWasPushed(): void&lt;/div&gt;&lt;div&gt;+ OffButtonWasPushed(): void&lt;/div&gt;" style="text;strokeColor=none;fillColor=none;align=left;verticalAlign=top;spacingLeft=4;spacingRight=4;overflow=hidden;rotatable=0;points=[[0,0.5],[1,0.5]];portConstraint=eastwest;whiteSpace=wrap;html=1;" vertex="1" parent="fSA8bUPARVTCxsjljpVI-38">
          <mxGeometry y="68" width="310" height="52" as="geometry" />
        </mxCell>
        <mxCell id="fSA8bUPARVTCxsjljpVI-42" value="&amp;lt;&amp;lt;interface&amp;gt;&amp;gt;&lt;div&gt;Command&lt;/div&gt;" style="swimlane;fontStyle=0;childLayout=stackLayout;horizontal=1;startSize=40;fillColor=none;horizontalStack=0;resizeParent=1;resizeParentMax=0;resizeLast=0;collapsible=1;marginBottom=0;whiteSpace=wrap;html=1;" vertex="1" parent="WIyWlLk6GJQsqaUBKTNV-1">
          <mxGeometry x="-670" y="-330" width="140" height="62" as="geometry" />
        </mxCell>
        <mxCell id="fSA8bUPARVTCxsjljpVI-43" value="+ Execute(): void" style="text;strokeColor=none;fillColor=none;align=left;verticalAlign=top;spacingLeft=4;spacingRight=4;overflow=hidden;rotatable=0;points=[[0,0.5],[1,0.5]];portConstraint=eastwest;whiteSpace=wrap;html=1;" vertex="1" parent="fSA8bUPARVTCxsjljpVI-42">
          <mxGeometry y="40" width="140" height="22" as="geometry" />
        </mxCell>
        <mxCell id="fSA8bUPARVTCxsjljpVI-50" value="LightOffCommand" style="swimlane;fontStyle=1;align=center;verticalAlign=top;childLayout=stackLayout;horizontal=1;startSize=26;horizontalStack=0;resizeParent=1;resizeParentMax=0;resizeLast=0;collapsible=1;marginBottom=0;whiteSpace=wrap;html=1;" vertex="1" parent="WIyWlLk6GJQsqaUBKTNV-1">
          <mxGeometry x="-640" y="-2" width="160" height="86" as="geometry" />
        </mxCell>
        <mxCell id="fSA8bUPARVTCxsjljpVI-51" value="- Light: light" style="text;strokeColor=none;fillColor=none;align=left;verticalAlign=top;spacingLeft=4;spacingRight=4;overflow=hidden;rotatable=0;points=[[0,0.5],[1,0.5]];portConstraint=eastwest;whiteSpace=wrap;html=1;" vertex="1" parent="fSA8bUPARVTCxsjljpVI-50">
          <mxGeometry y="26" width="160" height="26" as="geometry" />
        </mxCell>
        <mxCell id="fSA8bUPARVTCxsjljpVI-52" value="" style="line;strokeWidth=1;fillColor=none;align=left;verticalAlign=middle;spacingTop=-1;spacingLeft=3;spacingRight=3;rotatable=0;labelPosition=right;points=[];portConstraint=eastwest;strokeColor=inherit;" vertex="1" parent="fSA8bUPARVTCxsjljpVI-50">
          <mxGeometry y="52" width="160" height="8" as="geometry" />
        </mxCell>
        <mxCell id="fSA8bUPARVTCxsjljpVI-53" value="+ Execute(): void" style="text;strokeColor=none;fillColor=none;align=left;verticalAlign=top;spacingLeft=4;spacingRight=4;overflow=hidden;rotatable=0;points=[[0,0.5],[1,0.5]];portConstraint=eastwest;whiteSpace=wrap;html=1;" vertex="1" parent="fSA8bUPARVTCxsjljpVI-50">
          <mxGeometry y="60" width="160" height="26" as="geometry" />
        </mxCell>
        <mxCell id="fSA8bUPARVTCxsjljpVI-58" value="Light" style="swimlane;fontStyle=1;align=center;verticalAlign=top;childLayout=stackLayout;horizontal=1;startSize=26;horizontalStack=0;resizeParent=1;resizeParentMax=0;resizeLast=0;collapsible=1;marginBottom=0;whiteSpace=wrap;html=1;" vertex="1" parent="WIyWlLk6GJQsqaUBKTNV-1">
          <mxGeometry x="-1062" y="-162" width="160" height="100" as="geometry" />
        </mxCell>
        <mxCell id="fSA8bUPARVTCxsjljpVI-59" value="- string: location" style="text;strokeColor=none;fillColor=none;align=left;verticalAlign=top;spacingLeft=4;spacingRight=4;overflow=hidden;rotatable=0;points=[[0,0.5],[1,0.5]];portConstraint=eastwest;whiteSpace=wrap;html=1;" vertex="1" parent="fSA8bUPARVTCxsjljpVI-58">
          <mxGeometry y="26" width="160" height="26" as="geometry" />
        </mxCell>
        <mxCell id="fSA8bUPARVTCxsjljpVI-60" value="" style="line;strokeWidth=1;fillColor=none;align=left;verticalAlign=middle;spacingTop=-1;spacingLeft=3;spacingRight=3;rotatable=0;labelPosition=right;points=[];portConstraint=eastwest;strokeColor=inherit;" vertex="1" parent="fSA8bUPARVTCxsjljpVI-58">
          <mxGeometry y="52" width="160" height="8" as="geometry" />
        </mxCell>
        <mxCell id="fSA8bUPARVTCxsjljpVI-61" value="+ On(): void&lt;div&gt;+ Off(): void&lt;/div&gt;" style="text;strokeColor=none;fillColor=none;align=left;verticalAlign=top;spacingLeft=4;spacingRight=4;overflow=hidden;rotatable=0;points=[[0,0.5],[1,0.5]];portConstraint=eastwest;whiteSpace=wrap;html=1;" vertex="1" parent="fSA8bUPARVTCxsjljpVI-58">
          <mxGeometry y="60" width="160" height="40" as="geometry" />
        </mxCell>
        <mxCell id="fSA8bUPARVTCxsjljpVI-64" value="" style="endArrow=block;dashed=1;endFill=0;endSize=12;html=1;rounded=0;exitX=0.5;exitY=0;exitDx=0;exitDy=0;" edge="1" parent="WIyWlLk6GJQsqaUBKTNV-1" source="fSA8bUPARVTCxsjljpVI-46">
          <mxGeometry width="160" relative="1" as="geometry">
            <mxPoint x="-370" y="-122" as="sourcePoint" />
            <mxPoint x="-610" y="-270" as="targetPoint" />
          </mxGeometry>
        </mxCell>
        <mxCell id="fSA8bUPARVTCxsjljpVI-65" value="implements" style="edgeLabel;html=1;align=center;verticalAlign=middle;resizable=0;points=[];" vertex="1" connectable="0" parent="fSA8bUPARVTCxsjljpVI-64">
          <mxGeometry x="0.1404" y="-4" relative="1" as="geometry">
            <mxPoint as="offset" />
          </mxGeometry>
        </mxCell>
        <mxCell id="fSA8bUPARVTCxsjljpVI-66" value="" style="endArrow=block;dashed=1;endFill=0;endSize=12;html=1;rounded=0;exitX=0.581;exitY=-0.012;exitDx=0;exitDy=0;entryX=0.864;entryY=1;entryDx=0;entryDy=0;entryPerimeter=0;exitPerimeter=0;" edge="1" parent="WIyWlLk6GJQsqaUBKTNV-1" source="fSA8bUPARVTCxsjljpVI-50" target="fSA8bUPARVTCxsjljpVI-43">
          <mxGeometry width="160" relative="1" as="geometry">
            <mxPoint x="-600" y="-150" as="sourcePoint" />
            <mxPoint x="-600" y="-253" as="targetPoint" />
          </mxGeometry>
        </mxCell>
        <mxCell id="fSA8bUPARVTCxsjljpVI-67" value="implements" style="edgeLabel;html=1;align=center;verticalAlign=middle;resizable=0;points=[];" vertex="1" connectable="0" parent="fSA8bUPARVTCxsjljpVI-66">
          <mxGeometry x="0.1404" y="-4" relative="1" as="geometry">
            <mxPoint as="offset" />
          </mxGeometry>
        </mxCell>
        <mxCell id="fSA8bUPARVTCxsjljpVI-68" value="" style="html=1;verticalAlign=bottom;endArrow=block;curved=0;rounded=0;exitX=1.003;exitY=0.108;exitDx=0;exitDy=0;exitPerimeter=0;" edge="1" parent="WIyWlLk6GJQsqaUBKTNV-1" source="fSA8bUPARVTCxsjljpVI-38">
          <mxGeometry x="-0.0003" width="80" relative="1" as="geometry">
            <mxPoint x="-470" y="-270.5" as="sourcePoint" />
            <mxPoint x="-670" y="-317" as="targetPoint" />
            <mxPoint as="offset" />
          </mxGeometry>
        </mxCell>
        <mxCell id="fSA8bUPARVTCxsjljpVI-70" value="" style="html=1;verticalAlign=bottom;endArrow=block;curved=0;rounded=0;exitX=0.25;exitY=0;exitDx=0;exitDy=0;" edge="1" parent="WIyWlLk6GJQsqaUBKTNV-1" source="fSA8bUPARVTCxsjljpVI-46">
          <mxGeometry x="-0.0003" width="80" relative="1" as="geometry">
            <mxPoint x="-816" y="-307" as="sourcePoint" />
            <mxPoint x="-900" y="-120" as="targetPoint" />
            <mxPoint as="offset" />
            <Array as="points">
              <mxPoint x="-650" y="-120" />
            </Array>
          </mxGeometry>
        </mxCell>
        <mxCell id="fSA8bUPARVTCxsjljpVI-71" value="&amp;nbsp;public void Execute()&amp;nbsp;&lt;div&gt;&amp;nbsp;{&lt;div&gt;&lt;span style=&quot;white-space: pre;&quot;&gt;&#x9;&lt;/span&gt;light.On();&lt;/div&gt;&lt;div&gt;&amp;nbsp;}&lt;/div&gt;&lt;/div&gt;" style="html=1;whiteSpace=wrap;align=left;" vertex="1" parent="WIyWlLk6GJQsqaUBKTNV-1">
          <mxGeometry x="-440" y="-62" width="130" height="68" as="geometry" />
        </mxCell>
        <mxCell id="fSA8bUPARVTCxsjljpVI-73" value="&amp;nbsp;public void Execute()&amp;nbsp;&lt;div&gt;&amp;nbsp;{&lt;div&gt;&lt;span style=&quot;white-space: pre;&quot;&gt;&#x9;&lt;/span&gt;light.Off();&lt;/div&gt;&lt;div&gt;&amp;nbsp;}&lt;/div&gt;&lt;/div&gt;" style="html=1;whiteSpace=wrap;align=left;" vertex="1" parent="WIyWlLk6GJQsqaUBKTNV-1">
          <mxGeometry x="-390" y="16" width="130" height="68" as="geometry" />
        </mxCell>
        <mxCell id="fSA8bUPARVTCxsjljpVI-74" value="" style="endArrow=none;dashed=1;html=1;dashPattern=1 3;strokeWidth=2;rounded=0;exitX=1.006;exitY=0.186;exitDx=0;exitDy=0;exitPerimeter=0;entryX=0;entryY=0.25;entryDx=0;entryDy=0;" edge="1" parent="WIyWlLk6GJQsqaUBKTNV-1" source="fSA8bUPARVTCxsjljpVI-46" target="fSA8bUPARVTCxsjljpVI-71">
          <mxGeometry width="50" height="50" relative="1" as="geometry">
            <mxPoint x="-570" y="198" as="sourcePoint" />
            <mxPoint x="-450" y="-46" as="targetPoint" />
          </mxGeometry>
        </mxCell>
        <mxCell id="fSA8bUPARVTCxsjljpVI-75" value="" style="endArrow=none;dashed=1;html=1;dashPattern=1 3;strokeWidth=2;rounded=0;exitX=1.019;exitY=0.769;exitDx=0;exitDy=0;entryX=-0.023;entryY=0.412;entryDx=0;entryDy=0;entryPerimeter=0;exitPerimeter=0;" edge="1" parent="WIyWlLk6GJQsqaUBKTNV-1" source="fSA8bUPARVTCxsjljpVI-51" target="fSA8bUPARVTCxsjljpVI-73">
          <mxGeometry width="50" height="50" relative="1" as="geometry">
            <mxPoint x="-519" y="-36" as="sourcePoint" />
            <mxPoint x="-430" y="-35" as="targetPoint" />
          </mxGeometry>
        </mxCell>
        <mxCell id="fSA8bUPARVTCxsjljpVI-76" value="" style="endArrow=open;endSize=12;dashed=1;html=1;rounded=0;exitX=0.75;exitY=1;exitDx=0;exitDy=0;" edge="1" parent="WIyWlLk6GJQsqaUBKTNV-1" source="fSA8bUPARVTCxsjljpVI-34">
          <mxGeometry width="160" relative="1" as="geometry">
            <mxPoint x="-1297" y="50" as="sourcePoint" />
            <mxPoint x="-1060" y="-120" as="targetPoint" />
            <Array as="points">
              <mxPoint x="-1285" y="-120" />
            </Array>
          </mxGeometry>
        </mxCell>
        <mxCell id="fSA8bUPARVTCxsjljpVI-77" value="" style="endArrow=open;endSize=12;dashed=1;html=1;rounded=0;entryX=0;entryY=0.5;entryDx=0;entryDy=0;" edge="1" parent="WIyWlLk6GJQsqaUBKTNV-1" target="fSA8bUPARVTCxsjljpVI-49">
          <mxGeometry width="160" relative="1" as="geometry">
            <mxPoint x="-1360" y="-280" as="sourcePoint" />
            <mxPoint x="-1050" y="-110" as="targetPoint" />
            <Array as="points">
              <mxPoint x="-1360" y="10" />
            </Array>
          </mxGeometry>
        </mxCell>
        <mxCell id="fSA8bUPARVTCxsjljpVI-78" value="" style="endArrow=open;endSize=12;dashed=1;html=1;rounded=0;entryX=0;entryY=0.5;entryDx=0;entryDy=0;exitX=0;exitY=1;exitDx=0;exitDy=0;" edge="1" parent="WIyWlLk6GJQsqaUBKTNV-1" source="fSA8bUPARVTCxsjljpVI-34" target="fSA8bUPARVTCxsjljpVI-53">
          <mxGeometry width="160" relative="1" as="geometry">
            <mxPoint x="-1350" y="-270" as="sourcePoint" />
            <mxPoint x="-680" y="21" as="targetPoint" />
            <Array as="points">
              <mxPoint x="-1390" y="70" />
            </Array>
          </mxGeometry>
        </mxCell>
        <mxCell id="fSA8bUPARVTCxsjljpVI-79" value="&lt;i&gt;For this example Light just prints a line&lt;/i&gt;" style="text;html=1;align=center;verticalAlign=middle;resizable=0;points=[];autosize=1;strokeColor=none;fillColor=none;" vertex="1" parent="WIyWlLk6GJQsqaUBKTNV-1">
          <mxGeometry x="-310" y="-43" width="230" height="30" as="geometry" />
        </mxCell>
        <mxCell id="fSA8bUPARVTCxsjljpVI-80" value="&lt;i&gt;This just creates a number of Command objects,&amp;nbsp;&lt;/i&gt;&lt;div&gt;&lt;i&gt;that are loaded into the slots of RemoteControl&lt;/i&gt;&lt;/div&gt;" style="text;html=1;align=center;verticalAlign=middle;resizable=0;points=[];autosize=1;strokeColor=none;fillColor=none;" vertex="1" parent="WIyWlLk6GJQsqaUBKTNV-1">
          <mxGeometry x="-1460" y="-415" width="280" height="40" as="geometry" />
        </mxCell>
        <mxCell id="fSA8bUPARVTCxsjljpVI-81" value="&lt;i&gt;Each command encapsulates a request&lt;/i&gt;&lt;div&gt;&lt;i&gt;&amp;nbsp;of a home automation device&lt;/i&gt;&lt;/div&gt;" style="text;html=1;align=center;verticalAlign=middle;resizable=0;points=[];autosize=1;strokeColor=none;fillColor=none;" vertex="1" parent="WIyWlLk6GJQsqaUBKTNV-1">
          <mxGeometry x="-1447" y="-375" width="230" height="40" as="geometry" />
        </mxCell>
        <mxCell id="fSA8bUPARVTCxsjljpVI-82" value="&lt;i&gt;this managers a set of Command objects, one per button&lt;/i&gt;&lt;div&gt;&lt;i&gt;When a button is pressed, it invokes Execute() method&lt;/i&gt;&lt;/div&gt;&lt;div&gt;&lt;i&gt;but all this class knows is it&#39;s invoking this method&lt;/i&gt;&lt;/div&gt;" style="text;html=1;align=center;verticalAlign=middle;resizable=0;points=[];autosize=1;strokeColor=none;fillColor=none;" vertex="1" parent="WIyWlLk6GJQsqaUBKTNV-1">
          <mxGeometry x="-1157" y="-390" width="330" height="60" as="geometry" />
        </mxCell>
        <mxCell id="fSA8bUPARVTCxsjljpVI-84" value="&lt;i&gt;If we wanted to create Commands for other Objects, we&#39;d just need a new On and Off Command,&amp;nbsp;&lt;/i&gt;&lt;div&gt;&lt;i&gt;the object which manages, and to load it inside RemoteLoader&lt;/i&gt;&lt;/div&gt;" style="text;html=1;align=center;verticalAlign=middle;resizable=0;points=[];autosize=1;strokeColor=none;fillColor=none;" vertex="1" parent="WIyWlLk6GJQsqaUBKTNV-1">
          <mxGeometry x="-1252" y="145" width="540" height="40" as="geometry" />
        </mxCell>
        <mxCell id="fSA8bUPARVTCxsjljpVI-85" value="GarageDoorOpenCommand" style="swimlane;fontStyle=1;align=center;verticalAlign=top;childLayout=stackLayout;horizontal=1;startSize=26;horizontalStack=0;resizeParent=1;resizeParentMax=0;resizeLast=0;collapsible=1;marginBottom=0;whiteSpace=wrap;html=1;" vertex="1" parent="WIyWlLk6GJQsqaUBKTNV-1">
          <mxGeometry x="-688" y="280" width="170" height="86" as="geometry" />
        </mxCell>
        <mxCell id="fSA8bUPARVTCxsjljpVI-86" value="- GarageDoor: door" style="text;strokeColor=none;fillColor=none;align=left;verticalAlign=top;spacingLeft=4;spacingRight=4;overflow=hidden;rotatable=0;points=[[0,0.5],[1,0.5]];portConstraint=eastwest;whiteSpace=wrap;html=1;" vertex="1" parent="fSA8bUPARVTCxsjljpVI-85">
          <mxGeometry y="26" width="170" height="26" as="geometry" />
        </mxCell>
        <mxCell id="fSA8bUPARVTCxsjljpVI-87" value="" style="line;strokeWidth=1;fillColor=none;align=left;verticalAlign=middle;spacingTop=-1;spacingLeft=3;spacingRight=3;rotatable=0;labelPosition=right;points=[];portConstraint=eastwest;strokeColor=inherit;" vertex="1" parent="fSA8bUPARVTCxsjljpVI-85">
          <mxGeometry y="52" width="170" height="8" as="geometry" />
        </mxCell>
        <mxCell id="fSA8bUPARVTCxsjljpVI-88" value="+ Execute(): void" style="text;strokeColor=none;fillColor=none;align=left;verticalAlign=top;spacingLeft=4;spacingRight=4;overflow=hidden;rotatable=0;points=[[0,0.5],[1,0.5]];portConstraint=eastwest;whiteSpace=wrap;html=1;" vertex="1" parent="fSA8bUPARVTCxsjljpVI-85">
          <mxGeometry y="60" width="170" height="26" as="geometry" />
        </mxCell>
        <mxCell id="fSA8bUPARVTCxsjljpVI-89" value="GarageDoorCloseCommand" style="swimlane;fontStyle=1;align=center;verticalAlign=top;childLayout=stackLayout;horizontal=1;startSize=26;horizontalStack=0;resizeParent=1;resizeParentMax=0;resizeLast=0;collapsible=1;marginBottom=0;whiteSpace=wrap;html=1;" vertex="1" parent="WIyWlLk6GJQsqaUBKTNV-1">
          <mxGeometry x="-638" y="340" width="170" height="86" as="geometry" />
        </mxCell>
        <mxCell id="fSA8bUPARVTCxsjljpVI-90" value="- GarageDoor: door" style="text;strokeColor=none;fillColor=none;align=left;verticalAlign=top;spacingLeft=4;spacingRight=4;overflow=hidden;rotatable=0;points=[[0,0.5],[1,0.5]];portConstraint=eastwest;whiteSpace=wrap;html=1;" vertex="1" parent="fSA8bUPARVTCxsjljpVI-89">
          <mxGeometry y="26" width="170" height="26" as="geometry" />
        </mxCell>
        <mxCell id="fSA8bUPARVTCxsjljpVI-91" value="" style="line;strokeWidth=1;fillColor=none;align=left;verticalAlign=middle;spacingTop=-1;spacingLeft=3;spacingRight=3;rotatable=0;labelPosition=right;points=[];portConstraint=eastwest;strokeColor=inherit;" vertex="1" parent="fSA8bUPARVTCxsjljpVI-89">
          <mxGeometry y="52" width="170" height="8" as="geometry" />
        </mxCell>
        <mxCell id="fSA8bUPARVTCxsjljpVI-92" value="+ Execute(): void" style="text;strokeColor=none;fillColor=none;align=left;verticalAlign=top;spacingLeft=4;spacingRight=4;overflow=hidden;rotatable=0;points=[[0,0.5],[1,0.5]];portConstraint=eastwest;whiteSpace=wrap;html=1;" vertex="1" parent="fSA8bUPARVTCxsjljpVI-89">
          <mxGeometry y="60" width="170" height="26" as="geometry" />
        </mxCell>
        <mxCell id="fSA8bUPARVTCxsjljpVI-93" value="GarageDoor" style="swimlane;fontStyle=1;align=center;verticalAlign=top;childLayout=stackLayout;horizontal=1;startSize=26;horizontalStack=0;resizeParent=1;resizeParentMax=0;resizeLast=0;collapsible=1;marginBottom=0;whiteSpace=wrap;html=1;" vertex="1" parent="WIyWlLk6GJQsqaUBKTNV-1">
          <mxGeometry x="-1060" y="180" width="160" height="100" as="geometry" />
        </mxCell>
        <mxCell id="fSA8bUPARVTCxsjljpVI-94" value="- string: location" style="text;strokeColor=none;fillColor=none;align=left;verticalAlign=top;spacingLeft=4;spacingRight=4;overflow=hidden;rotatable=0;points=[[0,0.5],[1,0.5]];portConstraint=eastwest;whiteSpace=wrap;html=1;" vertex="1" parent="fSA8bUPARVTCxsjljpVI-93">
          <mxGeometry y="26" width="160" height="26" as="geometry" />
        </mxCell>
        <mxCell id="fSA8bUPARVTCxsjljpVI-95" value="" style="line;strokeWidth=1;fillColor=none;align=left;verticalAlign=middle;spacingTop=-1;spacingLeft=3;spacingRight=3;rotatable=0;labelPosition=right;points=[];portConstraint=eastwest;strokeColor=inherit;" vertex="1" parent="fSA8bUPARVTCxsjljpVI-93">
          <mxGeometry y="52" width="160" height="8" as="geometry" />
        </mxCell>
        <mxCell id="fSA8bUPARVTCxsjljpVI-96" value="+ Open(): void&lt;div&gt;+ Close(): void&lt;/div&gt;" style="text;strokeColor=none;fillColor=none;align=left;verticalAlign=top;spacingLeft=4;spacingRight=4;overflow=hidden;rotatable=0;points=[[0,0.5],[1,0.5]];portConstraint=eastwest;whiteSpace=wrap;html=1;" vertex="1" parent="fSA8bUPARVTCxsjljpVI-93">
          <mxGeometry y="60" width="160" height="40" as="geometry" />
        </mxCell>
        <mxCell id="fSA8bUPARVTCxsjljpVI-97" value="" style="html=1;verticalAlign=bottom;endArrow=block;curved=0;rounded=0;exitX=0.25;exitY=0;exitDx=0;exitDy=0;" edge="1" parent="WIyWlLk6GJQsqaUBKTNV-1" source="fSA8bUPARVTCxsjljpVI-85">
          <mxGeometry x="-0.0003" width="80" relative="1" as="geometry">
            <mxPoint x="-814" y="35" as="sourcePoint" />
            <mxPoint x="-898" y="222" as="targetPoint" />
            <mxPoint as="offset" />
            <Array as="points">
              <mxPoint x="-645" y="222" />
            </Array>
          </mxGeometry>
        </mxCell>
        <mxCell id="fSA8bUPARVTCxsjljpVI-98" value="&amp;nbsp;public void Execute()&amp;nbsp;&lt;div&gt;&amp;nbsp;{&lt;div&gt;&lt;span style=&quot;white-space: pre;&quot;&gt;&#x9;&lt;/span&gt;door.Open();&lt;/div&gt;&lt;div&gt;&amp;nbsp;}&lt;/div&gt;&lt;/div&gt;" style="html=1;whiteSpace=wrap;align=left;" vertex="1" parent="WIyWlLk6GJQsqaUBKTNV-1">
          <mxGeometry x="-438" y="280" width="130" height="68" as="geometry" />
        </mxCell>
        <mxCell id="fSA8bUPARVTCxsjljpVI-99" value="&amp;nbsp;public void Execute()&amp;nbsp;&lt;div&gt;&amp;nbsp;{&lt;div&gt;&lt;span style=&quot;white-space: pre;&quot;&gt;&#x9;&lt;/span&gt;door.Close();&lt;/div&gt;&lt;div&gt;&amp;nbsp;}&lt;/div&gt;&lt;/div&gt;" style="html=1;whiteSpace=wrap;align=left;" vertex="1" parent="WIyWlLk6GJQsqaUBKTNV-1">
          <mxGeometry x="-388" y="358" width="130" height="68" as="geometry" />
        </mxCell>
        <mxCell id="fSA8bUPARVTCxsjljpVI-100" value="" style="endArrow=none;dashed=1;html=1;dashPattern=1 3;strokeWidth=2;rounded=0;exitX=1.006;exitY=0.186;exitDx=0;exitDy=0;exitPerimeter=0;entryX=0;entryY=0.25;entryDx=0;entryDy=0;" edge="1" parent="WIyWlLk6GJQsqaUBKTNV-1" source="fSA8bUPARVTCxsjljpVI-85" target="fSA8bUPARVTCxsjljpVI-98">
          <mxGeometry width="50" height="50" relative="1" as="geometry">
            <mxPoint x="-568" y="540" as="sourcePoint" />
            <mxPoint x="-448" y="296" as="targetPoint" />
          </mxGeometry>
        </mxCell>
        <mxCell id="fSA8bUPARVTCxsjljpVI-101" value="" style="endArrow=none;dashed=1;html=1;dashPattern=1 3;strokeWidth=2;rounded=0;exitX=1.019;exitY=0.769;exitDx=0;exitDy=0;entryX=-0.023;entryY=0.412;entryDx=0;entryDy=0;entryPerimeter=0;exitPerimeter=0;" edge="1" parent="WIyWlLk6GJQsqaUBKTNV-1" source="fSA8bUPARVTCxsjljpVI-90" target="fSA8bUPARVTCxsjljpVI-99">
          <mxGeometry width="50" height="50" relative="1" as="geometry">
            <mxPoint x="-517" y="306" as="sourcePoint" />
            <mxPoint x="-428" y="307" as="targetPoint" />
          </mxGeometry>
        </mxCell>
      </root>
    </mxGraphModel>
  </diagram>
</mxfile>
